<?xml version="1.0" standalone="no"?>
<!DOCTYPE svg PUBLIC "-//W3C//DTD SVG 20010904//EN"
 "http://www.w3.org/TR/2001/REC-SVG-20010904/DTD/svg10.dtd">
<svg version="1.0" xmlns="http://www.w3.org/2000/svg"
 width="449.000000pt" height="449.000000pt" viewBox="0 0 449.000000 449.000000"
 preserveAspectRatio="xMidYMid meet">
<metadata>
Created by potrace 1.14, written by Peter Selinger 2001-2017
</metadata>
<g transform="translate(0.000000,449.000000) scale(0.100000,-0.100000)"
fill="#000000" stroke="none">
<path d="M1918 4113 c7 -3 16 -2 19 1 4 3 -2 6 -13 5 -11 0 -14 -3 -6 -6z"/>
<path d="M1653 3988 c-58 -49 -95 -92 -86 -102 3 -3 1 -6 -5 -6 -6 0 -27 -27
-47 -60 l-36 -60 27 -25 c15 -14 22 -25 15 -25 -19 0 -12 -38 10 -59 12 -11
27 -17 35 -14 8 3 14 1 14 -5 0 -10 -36 -107 -51 -134 -5 -10 -9 -44 -9 -76 0
-47 4 -63 20 -77 18 -17 20 -17 14 -2 -3 9 -10 17 -15 17 -12 0 -12 117 0 124
5 3 11 16 15 29 3 13 13 41 23 63 9 21 18 50 19 64 3 40 3 40 19 40 8 0 15 7
15 16 0 8 3 13 8 11 4 -2 17 9 30 24 13 16 20 29 15 29 -12 0 -98 -82 -98 -94
0 -6 -9 -11 -20 -11 -17 0 -20 8 -22 55 -2 34 1 50 6 41 7 -11 10 -9 16 8 11
34 13 91 4 85 -36 -22 33 79 90 133 68 63 65 68 -6 11z m-117 -205 c-10 -10
-19 5 -10 18 6 11 8 11 12 0 2 -7 1 -15 -2 -18z"/>
<path d="M2468 4003 c6 -2 9 -10 5 -16 -3 -7 -2 -9 2 -4 5 4 18 -1 29 -10 15
-13 14 -10 -3 10 -14 15 -29 27 -35 26 -6 0 -5 -3 2 -6z"/>
<path d="M1705 3990 c3 -5 0 -10 -7 -10 -10 0 -9 -3 2 -9 8 -6 17 -8 22 -5 9
6 -1 34 -14 34 -5 0 -6 -4 -3 -10z"/>
<path d="M2330 3960 c0 -5 3 -9 8 -9 31 5 66 -36 42 -51 -6 -4 4 -7 22 -7 18
0 26 2 17 4 -9 2 -23 19 -32 38 -11 23 -24 35 -37 35 -11 0 -20 -4 -20 -10z"/>
<path d="M1680 3950 c0 -5 7 -10 15 -10 8 0 15 5 15 10 0 6 -7 10 -15 10 -8 0
-15 -4 -15 -10z"/>
<path d="M2540 3933 c0 -4 11 -16 26 -28 14 -11 27 -29 29 -40 2 -11 4 -20 5
-20 1 0 3 -9 5 -19 2 -10 9 -22 15 -26 8 -5 7 -9 -5 -13 -9 -4 -13 -3 -10 3 3
6 1 10 -4 10 -6 0 -11 -7 -11 -15 0 -9 -6 -12 -15 -9 -8 4 -15 1 -15 -5 0 -6
7 -12 15 -12 28 -3 33 -4 41 -11 4 -5 2 -8 -5 -8 -7 0 -9 -5 -5 -12 6 -10 4
-10 -7 0 -7 6 -20 12 -28 12 -11 0 -10 -4 5 -15 18 -15 17 -16 -11 -10 -16 3
-51 7 -77 9 -42 4 -47 2 -52 -20 -4 -13 -13 -24 -22 -24 -10 0 -13 6 -10 18 4
12 1 19 -8 19 -9 0 -13 -8 -10 -22 3 -19 0 -20 -31 -17 -37 4 -37 18 -1 32 16
7 17 9 4 9 -20 1 -50 -27 -43 -40 4 -5 16 -9 28 -9 18 0 19 -2 7 -10 -13 -8
-12 -11 4 -23 27 -20 5 -31 -63 -30 -31 1 -44 -1 -28 -4 15 -2 27 -9 27 -14 0
-5 -12 -9 -27 -10 -47 -1 -73 -5 -80 -12 -3 -4 3 -7 14 -7 20 0 39 -27 28 -38
-3 -3 -5 0 -5 7 0 7 -10 11 -22 10 -29 -3 -68 9 -89 28 -13 11 -25 12 -50 4
l-34 -9 43 -1 c23 -1 42 -5 42 -11 0 -13 -63 -13 -94 1 -16 8 -33 8 -53 2 -24
-8 -16 -11 54 -17 46 -4 87 -5 93 -1 5 3 10 -3 10 -14 0 -11 -4 -23 -10 -26
-5 -3 -10 -2 -10 3 0 16 -97 35 -143 29 -22 -3 -36 -2 -30 1 7 4 9 13 4 20 -5
9 -13 7 -29 -8 -18 -17 -22 -18 -22 -5 0 8 7 15 16 15 8 0 12 5 9 10 -4 6 -3
10 2 9 4 -1 19 0 33 1 18 2 20 4 7 7 -10 2 -17 10 -16 16 1 7 1 21 0 32 -2 19
-3 18 -11 -2 -11 -26 -25 -30 -34 -8 -8 22 4 47 20 41 8 -3 14 -1 14 4 0 6 -4
10 -10 10 -5 0 -10 10 -11 23 l0 22 -10 -23 c-7 -18 -14 -22 -29 -17 -22 7
-28 -13 -9 -32 7 -7 8 -23 3 -45 -4 -18 -7 -36 -6 -40 1 -5 -2 -8 -7 -8 -10 0
-9 -19 1 -35 4 -6 -2 -11 -12 -12 -16 -1 -17 3 -10 28 5 16 6 29 2 29 -4 0 0
5 8 10 10 6 11 10 3 10 -7 0 -13 12 -13 28 0 20 -8 33 -31 46 -18 11 -29 14
-25 7 4 -6 1 -11 -6 -12 -7 0 -26 -2 -43 -3 -16 -2 -39 1 -50 6 -18 8 -18 7 2
-9 12 -10 23 -25 25 -33 2 -8 11 -21 21 -28 9 -7 15 -18 12 -23 -4 -5 2 -9 12
-9 15 0 16 -2 3 -10 -13 -8 -13 -10 1 -10 9 0 19 -7 23 -15 6 -16 -11 -20 -29
-7 -21 14 -55 70 -55 90 0 12 -6 19 -15 18 -21 -3 -31 -16 -12 -16 10 0 14 -5
11 -15 -4 -8 -10 -15 -16 -15 -5 0 -6 5 -3 10 3 6 -1 10 -9 10 -18 0 -10 -28
13 -48 9 -7 11 -11 6 -10 -6 2 -11 -1 -12 -7 -1 -5 8 -9 20 -8 21 2 20 2 -3
-12 l-25 -14 25 -1 c22 -1 23 -2 5 -9 -15 -6 -20 -19 -22 -57 -2 -27 -5 -68
-7 -91 -2 -24 0 -43 5 -43 5 0 9 11 9 25 0 26 14 33 26 13 4 -6 3 -8 -3 -5
-13 8 -25 -47 -17 -79 4 -14 2 -24 -5 -24 -6 0 -9 -6 -7 -12 14 -44 15 -78 2
-78 -14 0 -15 -27 -2 -48 10 -17 -21 -27 -39 -12 -8 7 -15 21 -15 32 0 10 -7
33 -16 49 -11 21 -13 44 -9 78 3 26 2 57 -3 70 -12 33 -14 -114 -2 -154 21
-70 29 -109 24 -114 -2 -3 -30 21 -60 53 -37 39 -59 55 -66 48 -15 -15 -25
-74 -17 -107 4 -20 7 -24 8 -10 2 18 3 18 12 -4 8 -19 14 -22 36 -16 26 6 27
6 10 -13 -18 -20 -23 -37 -8 -28 5 3 11 -4 14 -16 6 -21 7 -21 25 -5 10 9 24
17 30 17 7 0 12 4 12 8 0 10 90 57 108 56 28 -3 32 -4 32 -15 0 -5 -4 -7 -10
-4 -5 3 -10 1 -10 -5 0 -6 -4 -9 -9 -6 -5 3 -21 -1 -37 -9 -15 -7 -31 -12 -36
-9 -4 3 -8 -1 -8 -9 0 -10 7 -13 20 -10 12 3 20 0 20 -7 0 -9 6 -8 23 3 23 15
23 14 25 -24 2 -21 9 -54 17 -73 13 -30 13 -35 -1 -40 -12 -5 -15 -2 -10 11 6
14 4 15 -5 6 -14 -14 -2 -36 17 -29 11 4 11 2 2 -14 -11 -18 -13 -17 -35 15
-13 20 -29 32 -37 29 -7 -3 -19 2 -26 11 -7 8 -17 15 -23 15 -6 0 7 -19 28
-41 22 -23 34 -38 26 -34 -9 5 -12 3 -9 -6 3 -8 10 -13 15 -12 5 1 9 -16 8
-37 -1 -22 1 -37 4 -35 2 3 11 -1 20 -8 14 -11 14 -10 2 6 -12 15 -12 17 3 11
10 -4 15 -13 11 -22 -3 -8 0 -19 7 -24 10 -6 10 -8 -1 -8 -11 0 -11 -3 -1 -15
7 -8 19 -15 27 -15 8 0 11 -4 8 -10 -3 -5 1 -10 10 -10 11 0 15 -5 11 -15 -3
-8 0 -14 7 -12 7 1 11 -3 10 -10 -2 -6 4 -24 12 -40 8 -15 15 -23 15 -18 0 6
5 3 11 -5 13 -19 1 66 -13 95 -7 14 -7 17 0 10 11 -10 52 -119 54 -142 1 -7 6
-13 11 -13 5 0 7 8 4 18 -3 9 -12 38 -20 65 -8 26 -11 47 -6 47 5 0 9 -8 10
-17 0 -11 3 -13 6 -5 2 6 9 12 15 12 6 0 5 -6 -2 -15 -10 -12 -10 -25 -2 -58
6 -23 13 -51 16 -62 2 -14 4 -11 5 8 0 16 5 26 9 23 12 -7 14 71 2 93 -7 13
-7 22 0 26 5 3 10 11 10 16 0 6 -4 8 -9 5 -4 -3 -6 6 -3 19 2 14 8 25 13 25 5
0 9 35 9 78 0 42 4 84 9 91 6 10 8 1 4 -26 -3 -22 0 -49 6 -59 9 -17 11 -16
12 11 3 49 4 53 11 60 15 16 28 -6 17 -28 -16 -30 -5 -19 26 27 18 26 21 37
11 32 -39 -15 -51 -18 -37 -8 11 8 11 11 -4 13 -17 4 -17 5 0 19 11 8 16 10
12 3 -4 -6 -2 -15 4 -19 13 -7 31 15 22 29 -10 16 55 -22 69 -40 9 -12 26 -18
51 -18 39 1 75 -24 62 -44 -3 -6 0 -9 8 -5 8 3 14 -1 14 -10 0 -8 -4 -13 -9
-10 -5 4 -8 -2 -6 -12 2 -13 -2 -18 -12 -16 -10 3 -9 -3 5 -18 l20 -22 3 25
c2 15 11 29 23 32 10 4 19 11 19 16 0 17 17 9 18 -8 2 -31 -21 -93 -34 -93 -7
0 -18 -8 -23 -17 -6 -10 -11 -12 -11 -5 0 6 -7 12 -16 12 -12 0 -15 6 -10 25
4 14 2 25 -4 25 -5 0 -10 -6 -10 -13 0 -23 -33 -45 -54 -37 -19 6 -19 7 0 12
14 4 24 19 31 46 10 38 9 41 -20 66 -37 33 -50 25 -14 -8 40 -37 39 -39 -38
-108 -27 -24 -31 -25 -31 -9 0 11 5 17 13 14 7 -3 13 -1 13 4 0 5 -27 9 -60 9
-33 -1 -60 -4 -60 -8 0 -5 3 -7 8 -7 21 4 27 -4 26 -34 -1 -19 -5 -40 -9 -47
-5 -9 -4 -11 3 -6 7 4 12 4 13 -1 0 -4 2 -16 4 -25 2 -10 0 -18 -5 -18 -5 0
-10 -26 -12 -57 -2 -32 -8 -66 -12 -76 -6 -13 -5 -16 7 -11 14 5 13 0 -3 -33
-13 -28 -15 -40 -7 -45 9 -6 9 -8 0 -8 -6 0 -10 -13 -9 -32 2 -18 0 -42 -5
-53 -4 -11 -15 -49 -24 -85 -9 -36 -23 -81 -31 -100 -7 -19 -19 -56 -25 -83
-6 -26 -15 -50 -20 -53 -5 -3 -9 -16 -9 -28 0 -13 -11 -53 -24 -89 -22 -57
-59 -188 -72 -256 -3 -13 -11 -39 -19 -59 -13 -31 -37 -169 -47 -275 l-4 -37
23 27 c12 16 28 34 35 42 28 31 46 64 42 76 -3 6 2 18 11 25 13 11 15 10 10
-6 -3 -10 1 -5 9 11 8 17 15 23 16 16 0 -12 3 -12 12 -3 7 7 17 12 23 12 5 -1
1 -8 -11 -18 -11 -9 -20 -20 -20 -24 1 -3 -10 -21 -24 -40 -52 -69 -70 -99
-70 -116 0 -10 -7 -27 -15 -39 -10 -14 -12 -24 -5 -28 19 -12 -1 -25 -28 -20
-23 4 -24 4 -7 -4 31 -15 43 -13 50 9 4 11 11 18 16 15 5 -4 9 3 9 14 0 14 5
19 14 15 15 -6 64 17 98 44 9 8 22 11 29 6 7 -4 10 -3 6 3 -4 5 6 16 21 24 15
7 42 26 60 41 18 16 45 28 59 28 l26 0 -21 -23 c-36 -38 -25 -51 15 -18 37 31
73 41 73 21 0 -6 -6 -13 -14 -16 -8 -3 -13 -13 -11 -22 1 -9 -4 -29 -11 -44
-17 -33 -18 -41 -1 -32 8 5 8 2 -2 -9 -15 -19 -26 -23 -15 -6 4 7 1 10 -7 7
-8 -3 -14 -13 -14 -24 -1 -10 -6 -18 -12 -17 -6 1 -14 -4 -17 -13 -4 -10 0
-14 11 -12 9 2 18 -2 20 -8 4 -12 -25 -12 -45 -1 -8 6 -10 3 -6 -7 4 -10 1
-17 -7 -17 -8 -1 2 -4 21 -8 47 -8 120 -1 120 11 0 6 -8 7 -17 4 -15 -5 -15
-4 1 9 11 8 30 15 43 15 17 0 23 6 23 21 0 11 -5 17 -10 14 -6 -4 -8 -11 -5
-16 4 -5 -2 -9 -12 -9 -13 0 -4 14 32 48 31 29 53 43 58 37 5 -6 7 -1 4 11 -3
13 3 28 14 38 20 17 25 36 10 36 -17 0 -20 29 -4 42 14 11 15 10 9 -12 -5 -18
-4 -21 2 -11 6 8 8 30 5 50 -3 25 -2 32 5 22 5 -7 15 -10 22 -6 12 7 6 -47
-11 -93 -6 -14 -5 -21 0 -17 5 3 12 -3 15 -12 3 -10 4 -6 2 10 -2 15 0 27 3
27 4 0 8 17 9 39 2 21 5 49 7 62 3 17 2 20 -7 11 -16 -16 -31 -15 -21 1 11 18
15 49 5 43 -5 -3 -9 1 -9 9 0 8 4 12 8 10 4 -3 9 11 11 29 2 19 0 32 -4 30 -7
-5 -12 20 -5 30 1 2 -7 13 -17 25 -11 12 -16 24 -13 28 4 3 2 12 -4 19 -6 7
-6 14 0 18 5 3 7 15 4 26 -4 16 -2 19 11 14 19 -7 21 -31 4 -36 -8 -3 -9 -11
-3 -24 8 -17 9 -17 13 6 4 23 5 24 12 5 5 -12 7 2 4 35 -2 34 -1 46 4 31 7
-23 9 -22 26 20 10 24 24 58 31 75 8 18 11 42 8 55 -4 20 -3 21 7 9 9 -12 10
-10 4 10 -4 14 -7 38 -5 54 1 22 -2 27 -14 22 -8 -3 -15 -2 -15 3 0 17 22 71
30 71 7 0 5 45 -4 85 -3 11 -1 27 4 35 7 11 10 8 11 -15 1 -17 3 -23 6 -12 2
9 9 15 14 12 11 -7 11 2 0 30 -5 12 -3 28 4 40 8 12 10 28 5 40 -5 11 -9 16
-10 10 -1 -5 -5 -2 -9 8 -9 25 -1 88 10 81 6 -3 7 -14 4 -24 -3 -10 -2 -21 3
-24 5 -3 10 9 11 27 1 17 2 68 4 112 1 44 6 86 10 93 5 6 4 12 -1 12 -6 0 -8
8 -5 19 3 10 1 21 -4 24 -5 4 -9 -9 -8 -28 1 -35 -16 -51 -38 -38 -7 3 -9 3
-5 -1 4 -5 -2 -24 -12 -44 -10 -21 -21 -56 -25 -79 -8 -51 -20 -63 -29 -28 -7
26 -31 34 -38 13 -3 -7 2 -19 9 -27 12 -11 12 -15 1 -22 -7 -5 -9 -9 -4 -9 5
0 3 -7 -4 -15 -7 -8 -10 -21 -7 -29 5 -14 -13 -80 -26 -92 -4 -4 -2 -13 4 -20
8 -9 8 -23 0 -46 -13 -38 -33 -209 -26 -216 3 -3 5 2 5 11 0 10 4 17 9 17 16
0 28 -25 26 -57 0 -18 3 -33 8 -33 5 0 5 -6 -1 -12 -5 -7 -13 -33 -17 -58 -4
-25 -11 -52 -15 -60 -5 -9 -4 -23 1 -32 10 -19 1 -51 -12 -42 -5 3 -6 -3 -2
-12 5 -13 3 -15 -8 -9 -11 7 -11 5 1 -10 14 -17 13 -18 -3 -12 -10 4 -23 7
-28 7 -6 0 -8 18 -5 43 2 23 5 48 5 55 1 17 21 15 21 -3 0 -8 4 -15 9 -15 6 0
6 12 2 28 -8 32 -3 65 9 57 5 -3 6 5 3 17 -3 13 -7 40 -8 61 -3 40 -14 63 -16
34 -1 -10 -3 -21 -4 -27 -1 -5 -3 -13 -4 -16 0 -4 -7 -1 -14 5 -12 9 -10 33 9
143 13 73 24 134 24 135 0 1 -8 0 -17 -3 -17 -5 -16 -4 0 9 10 8 17 21 16 29
-1 7 1 38 5 68 3 30 8 80 11 110 5 67 20 121 37 132 10 6 10 10 1 16 -10 6 -9
15 3 37 8 17 13 40 11 52 -5 26 -1 29 16 11 7 -7 12 -33 11 -58 0 -24 5 -50
12 -57 18 -18 29 -16 14 3 -11 13 -10 16 9 21 13 3 20 11 17 19 -3 7 6 28 18
47 24 34 24 35 2 30 -13 -3 -9 2 11 12 31 17 34 32 11 61 -5 8 -2 13 11 17 14
3 18 1 14 -9 -12 -31 13 -11 29 24 10 20 34 66 53 101 24 43 33 71 29 87 -6
23 -6 23 -27 4 -11 -11 -23 -18 -25 -15 -8 8 29 56 38 50 6 -4 9 4 7 17 -1 17
3 23 16 22 9 -1 17 5 17 13 0 8 5 11 12 7 7 -4 8 -3 4 4 -4 7 -3 12 1 12 5 0
9 8 10 18 1 9 2 22 3 27 1 6 2 27 1 49 -1 33 -3 37 -16 26 -12 -10 -15 -10
-15 0 0 10 -3 10 -15 0 -29 -24 -25 -4 7 34 24 30 31 48 32 86 1 35 10 59 30
89 16 22 26 47 23 55 -4 9 -2 18 3 21 6 4 10 20 10 36 0 21 4 28 12 23 8 -5 9
-2 5 10 -4 10 -2 26 4 37 7 15 7 24 -2 35 -17 21 -38 -1 -38 -39 1 -18 -11
-59 -27 -92 -33 -71 -36 -81 -35 -119 0 -16 -4 -36 -9 -45 -7 -11 -8 -6 -4 19
5 29 0 23 -30 -34 -20 -39 -40 -72 -44 -75 -12 -9 -42 -54 -42 -64 0 -5 9 -5
20 -2 30 9 24 -11 -10 -35 -16 -12 -30 -27 -30 -33 0 -7 -9 -18 -20 -25 -11
-7 -20 -17 -20 -23 0 -8 5 -7 15 1 22 18 18 1 -7 -37 -31 -44 -47 -49 -46 -13
1 17 5 27 11 23 6 -4 7 -1 3 6 -5 7 3 28 16 49 14 20 28 46 32 57 5 15 9 16
15 6 5 -8 11 -9 15 -3 3 6 0 12 -6 15 -10 3 -10 7 -2 18 6 8 14 23 17 34 7 20
7 20 -8 1 -13 -17 -15 -18 -15 -3 0 33 -15 16 -18 -19 -1 -20 -4 -40 -7 -44
-10 -15 -77 -51 -72 -38 2 7 0 21 -5 30 -7 14 -5 16 9 11 13 -5 15 -3 10 11
-4 10 -7 21 -7 24 0 4 -4 1 -9 -6 -7 -11 -9 -11 -14 2 -10 26 28 19 39 -6 6
-13 9 -17 7 -10 -1 6 2 12 8 12 20 0 -23 33 -45 35 -33 3 -30 29 6 48 45 23
119 64 124 70 11 11 -49 -3 -64 -14 -9 -7 -4 1 12 19 29 32 43 41 31 22 -3 -5
-1 -10 6 -10 6 0 9 8 6 20 -3 11 -1 23 4 26 5 3 9 14 9 25 0 10 5 19 11 19 5
0 8 4 5 9 -8 13 14 72 25 65 5 -3 9 -1 9 5 0 5 9 9 20 8 19 -1 18 -3 -5 -45
-31 -55 -32 -65 -2 -26 12 16 28 30 36 32 12 3 12 0 1 -12 -7 -10 -8 -16 -2
-16 13 0 27 38 23 63 -1 10 5 29 13 42 9 13 16 41 16 62 0 27 3 34 9 23 6 -8
7 -18 5 -22 -3 -4 2 -5 10 -2 19 7 20 15 4 49 -10 23 -9 29 14 48 14 12 28 29
31 37 5 13 6 13 6 -1 1 -9 -8 -24 -18 -33 -20 -18 -20 -58 1 -83 14 -17 31 -5
23 15 -3 9 -3 13 1 9 8 -8 34 11 34 25 0 5 -6 6 -12 2 -10 -6 -9 -3 0 8 11 14
10 21 -8 46 -12 17 -19 35 -15 41 22 36 -133 311 -175 311 -6 0 -8 5 -5 10 3
6 1 10 -4 10 -6 0 -11 -3 -11 -7z m115 -173 c3 -6 -1 -7 -9 -4 -18 7 -21 14
-7 14 6 0 13 -4 16 -10z m34 -56 c17 -39 13 -42 -15 -9 -15 17 -23 24 -20 18
5 -9 2 -11 -10 -6 -12 4 -15 3 -10 -5 4 -7 13 -12 20 -12 18 0 48 -35 39 -46
-5 -5 -4 -6 1 -2 4 4 15 1 23 -7 15 -15 15 -15 -23 -58 -5 -7 -13 -21 -17 -31
-6 -14 -11 -16 -18 -9 -8 8 -8 16 0 30 6 10 11 14 11 9 0 -11 30 14 30 26 0 5
-4 7 -9 4 -13 -8 -42 4 -36 14 11 18 -19 22 -32 5 -7 -11 -13 -14 -13 -8 0 22
28 35 49 23 17 -9 20 -8 15 5 -4 9 -20 19 -35 22 -16 3 -32 10 -36 16 -4 6 0
8 11 4 13 -5 15 -2 12 18 -3 18 -1 22 11 18 10 -4 14 -2 10 4 -5 7 0 9 12 6
10 -2 24 -16 30 -29z m-116 -6 c28 -14 15 -19 -22 -8 -20 5 -40 6 -50 1 -17
-9 -51 3 -51 18 0 10 100 2 123 -11z m-53 -18 c-12 -7 -8 -12 18 -21 18 -6 31
-13 29 -16 -3 -2 -22 3 -43 12 -31 13 -36 18 -24 25 8 5 20 10 25 10 6 0 3 -5
-5 -10z m-133 -42 c-3 -8 -6 -5 -6 6 -1 11 2 17 5 13 3 -3 4 -12 1 -19z m93
18 c0 -2 -7 -6 -15 -10 -8 -3 -15 -1 -15 4 0 6 7 10 15 10 8 0 15 -2 15 -4z
m-687 -47 c-10 -4 -20 -4 -23 -1 -3 2 1 7 8 9 10 4 10 8 0 21 -8 11 -5 10 10
-3 22 -18 22 -20 5 -26z m-68 21 c-3 -5 -10 -10 -16 -10 -5 0 -9 5 -9 10 0 6
7 10 16 10 8 0 12 -4 9 -10z m29 -5 c-4 -8 -8 -15 -10 -15 -2 0 -4 7 -4 15 0
8 4 15 10 15 5 0 7 -7 4 -15z m16 -35 c12 -8 11 -10 -7 -10 -13 0 -23 5 -23
10 0 13 11 13 30 0z m600 -14 c0 -4 -104 -56 -113 -56 -4 0 -7 5 -7 10 0 6 9
10 21 10 14 0 19 5 16 14 -4 9 4 13 25 14 16 0 33 3 36 6 6 7 22 8 22 2z
m-575 -39 c-1 -12 3 -28 8 -36 17 -20 18 -43 1 -37 -8 3 -14 0 -14 -6 0 -7 -6
-3 -14 8 -10 13 -11 23 -4 31 7 9 7 17 1 26 -16 20 -12 45 7 40 10 -3 16 -13
15 -26z m282 -53 c-3 -3 -12 -4 -19 -1 -8 3 -5 6 6 6 11 1 17 -2 13 -5z m-396
-32 c-7 -2 -18 1 -23 6 -8 8 -4 9 13 5 13 -4 18 -8 10 -11z m366 2 c-3 -3 -12
-4 -19 -1 -8 3 -5 6 6 6 11 1 17 -2 13 -5z m-183 -29 c-23 -18 -64 -19 -64 -2
0 7 16 13 42 14 38 3 40 2 22 -12z m843 -7 c-3 -8 -6 -5 -6 6 -1 11 2 17 5 13
3 -3 4 -12 1 -19z m-770 6 c-3 -3 -12 -4 -19 -1 -8 3 -5 6 6 6 11 1 17 -2 13
-5z m-120 -56 c-3 -7 -5 -2 -5 12 0 14 2 19 5 13 2 -7 2 -19 0 -25z m81 12 c3
-8 0 -10 -7 -6 -16 11 -51 -3 -51 -20 0 -8 7 -14 15 -14 8 0 15 -5 15 -11 0
-5 -5 -7 -12 -3 -7 4 -8 3 -4 -5 4 -6 11 -9 16 -6 4 3 10 -2 14 -10 3 -8 1
-17 -4 -20 -6 -4 -10 -12 -10 -18 0 -7 7 -4 14 6 7 9 18 17 25 17 12 0 38 -47
30 -55 -11 -10 -55 -12 -66 -3 -14 11 -10 -27 8 -87 8 -28 8 -29 -6 -11 -8 11
-15 34 -15 52 0 18 -4 36 -10 39 -6 3 -10 -4 -10 -16 0 -43 -12 -10 -17 46 -6
72 3 125 23 125 8 0 13 4 10 8 -3 5 5 8 16 7 12 -1 24 -7 26 -15z m9 -32 c14
-24 11 -36 -8 -31 -10 3 -19 10 -19 15 0 5 5 6 12 2 7 -4 8 -3 4 5 -4 6 -11 9
-15 7 -4 -3 -13 -1 -21 5 -11 6 -8 9 12 9 15 0 30 -6 35 -12z m591 -18 c-14
-22 -24 -19 -15 5 4 8 11 15 17 15 6 0 6 -7 -2 -20z m-521 4 c-3 -3 -12 -4
-19 -1 -8 3 -5 6 6 6 11 1 17 -2 13 -5z m694 -77 c-10 -9 -11 -8 -5 6 3 10 9
15 12 12 3 -3 0 -11 -7 -18z m-201 -17 c0 -5 -5 -10 -11 -10 -5 0 -7 5 -4 10
3 6 8 10 11 10 2 0 4 -4 4 -10z m-650 -32 c0 -7 -10 -24 -21 -38 -11 -14 -18
-20 -15 -14 3 6 10 23 15 38 11 28 21 34 21 14z m14 -215 c3 -35 8 -68 12 -75
6 -9 3 -9 -9 1 -11 9 -15 22 -12 40 3 14 2 20 -1 14 -3 -7 -10 -13 -15 -13
-15 0 -6 43 11 58 13 12 12 13 -5 7 -11 -4 -25 -8 -32 -9 -16 -3 -24 -11 -27
-28 -4 -23 -26 -58 -38 -58 -7 0 -7 4 -1 13 14 17 25 67 16 67 -5 0 -14 4 -22
9 -12 8 -8 18 23 53 21 24 47 54 59 68 l22 25 7 -55 c5 -30 10 -83 12 -117z
m29 115 c2 -13 8 -32 12 -43 4 -11 -2 -6 -14 10 -22 31 -27 55 -12 55 5 0 11
-10 14 -22z m397 12 c0 -5 -7 -10 -15 -10 -8 0 -22 -11 -31 -25 -17 -27 -37
-25 -27 2 4 11 3 14 -6 9 -7 -4 -9 -17 -6 -29 5 -17 4 -19 -4 -7 -9 13 -11 13
-11 -2 0 -9 -4 -19 -9 -23 -6 -3 -6 6 -1 24 4 16 6 32 2 35 -3 4 3 13 14 21
22 16 94 20 94 5z m140 6 c0 -2 -8 -10 -17 -17 -16 -13 -17 -12 -4 4 13 16 21
21 21 13z m200 -24 c-11 -13 -17 -29 -13 -36 3 -7 1 -6 -7 1 -11 10 -11 16 3
31 9 10 15 21 12 24 -3 2 1 5 9 5 12 0 11 -6 -4 -25z m-660 -42 c5 0 6 8 3 18
-6 16 -6 16 10 0 9 -9 17 -26 17 -38 0 -13 4 -19 12 -14 7 4 8 3 4 -5 -4 -6
-11 -9 -16 -6 -4 3 -19 -4 -31 -16 -13 -11 -18 -18 -11 -14 20 10 14 -39 -8
-57 -19 -17 -19 -16 -19 25 0 23 -2 58 -5 77 -4 25 -4 29 3 15 5 -11 7 -23 4
-27 -2 -5 1 -8 7 -8 19 0 22 27 6 59 -20 38 -20 55 0 19 8 -16 19 -28 24 -28z
m177 24 c-3 -3 -12 -4 -19 -1 -8 3 -5 6 6 6 11 1 17 -2 13 -5z m133 -2 c0 -5
-7 -9 -15 -9 -8 0 -12 4 -9 9 3 4 9 8 15 8 5 0 9 -4 9 -8z m70 -22 c0 -5 -5
-10 -11 -10 -5 0 -7 5 -4 10 3 6 8 10 11 10 2 0 4 -4 4 -10z m-34 -29 c11 -21
12 -21 28 -5 25 24 39 5 21 -30 -8 -15 -12 -33 -8 -39 3 -6 1 -7 -5 -3 -7 4
-12 1 -12 -8 0 -9 -4 -16 -10 -16 -5 0 -10 9 -10 19 0 27 -12 32 -49 21 -19
-5 -29 -5 -26 1 4 5 -1 9 -9 9 -9 0 -16 7 -16 15 0 8 -4 15 -10 15 -5 0 -10 5
-10 10 0 6 7 10 15 10 9 0 18 6 21 14 8 22 67 13 80 -13z m-183 -14 c-3 -66
-3 -63 -12 -48 -5 7 -6 22 -4 32 3 10 0 19 -6 19 -18 0 -12 26 7 27 13 1 17
-6 15 -30z m-479 -11 c-3 -9 -10 -16 -15 -16 -14 0 -11 28 4 33 16 6 19 3 11
-17z m36 14 c0 -5 -4 -10 -10 -10 -5 0 -10 5 -10 10 0 6 5 10 10 10 6 0 10 -4
10 -10z m925 -37 c4 -13 -6 -44 -50 -148 -7 -16 -16 -41 -20 -55 -4 -14 -28
-56 -54 -93 -65 -96 -75 -117 -75 -159 -1 -28 -5 -36 -18 -35 -21 1 -21 2 -4
89 7 37 10 71 7 75 -3 3 -1 3 6 0 6 -4 9 -17 7 -30 -2 -12 7 0 20 27 14 28 23
53 20 58 -3 4 -1 8 4 8 6 0 17 17 25 38 8 20 25 45 36 54 14 12 21 30 21 52 0
48 26 107 45 100 17 -7 20 7 5 22 -7 7 -6 11 4 11 8 0 18 -7 21 -14z m-590
-23 c-10 -11 -22 -17 -28 -13 -5 3 1 14 14 24 30 22 38 16 14 -11z m-320 0 c3
-5 1 -10 -4 -10 -6 0 -11 5 -11 10 0 6 2 10 4 10 3 0 8 -4 11 -10z m943 -35
c-6 -14 -17 -25 -24 -25 -10 0 -9 7 4 29 20 35 36 31 20 -4z m-873 -13 c0 -9
-5 -24 -10 -32 -4 -8 3 -5 16 7 17 16 29 19 39 13 13 -8 13 -10 -1 -10 -9 0
-24 -12 -34 -26 -9 -14 -18 -24 -20 -22 -11 10 -13 64 -3 75 14 17 15 16 13
-5z m245 1 c0 -15 -2 -16 -10 -3 -5 8 -10 12 -10 8 0 -3 -3 -14 -7 -24 -4 -11
-3 -15 4 -11 15 9 10 -17 -6 -37 -15 -18 -31 -12 -30 12 0 14 2 13 9 -3 7 -17
9 -15 9 12 1 17 4 38 7 47 8 22 34 20 34 -1z m520 8 c0 -6 -4 -13 -10 -16 -5
-3 -10 -23 -11 -43 0 -29 -7 -42 -32 -62 -35 -28 -35 -27 10 69 26 55 43 76
43 52z m-490 -11 c0 -5 -5 -10 -11 -10 -5 0 -7 5 -4 10 3 6 8 10 11 10 2 0 4
-4 4 -10z m290 -1 c0 -5 -3 -8 -7 -6 -5 3 -9 -13 -9 -35 -1 -22 -7 -45 -14
-51 -9 -9 -10 -2 -6 33 2 25 5 51 5 58 1 15 31 16 31 1z m-206 -15 c3 -8 2
-12 -4 -9 -6 3 -10 10 -10 16 0 14 7 11 14 -7z m-273 -17 c-10 -9 -11 -8 -5 6
3 10 9 15 12 12 3 -3 0 -11 -7 -18z m369 13 c0 -5 -2 -10 -4 -10 -3 0 -8 5
-11 10 -3 6 -1 10 4 10 6 0 11 -4 11 -10z m-400 -80 c0 -5 -4 -10 -10 -10 -5
0 -10 5 -10 10 0 6 5 10 10 10 6 0 10 -4 10 -10z m575 -10 c-3 -5 2 -10 12
-10 15 0 14 -4 -7 -20 -15 -12 -18 -18 -7 -14 24 9 22 -3 -4 -16 -15 -9 -24
-8 -35 1 -13 10 -11 15 13 30 15 11 24 19 20 19 -5 0 -5 5 -2 10 3 6 8 10 11
10 3 0 2 -4 -1 -10z m-558 -35 c-15 -16 -19 -13 -11 9 3 9 10 13 15 10 5 -3 3
-11 -4 -19z m-40 9 c-3 -3 -12 -4 -19 -1 -8 3 -5 6 6 6 11 1 17 -2 13 -5z
m799 -9 c-4 -24 -16 -30 -16 -7 0 12 4 22 9 22 5 0 8 -7 7 -15z m-812 -46 c15
-17 26 -33 23 -35 -2 -2 -18 12 -36 31 -17 19 -28 35 -23 35 5 0 21 -14 36
-31z m786 17 c0 -20 -33 -91 -50 -107 -36 -34 -47 -39 -47 -24 0 8 4 12 9 9 5
-4 8 0 7 7 -3 14 23 71 44 97 8 11 12 11 19 0 6 -9 7 -5 3 10 -4 13 -2 22 4
22 6 0 11 -6 11 -14z m-210 -11 c7 -9 20 -13 29 -10 12 4 12 2 -2 -9 -14 -10
-15 -15 -5 -19 9 -4 9 -6 1 -6 -6 -1 -18 8 -26 20 l-15 21 -7 -21 c-3 -12 -11
-21 -16 -21 -6 0 -6 8 1 20 6 11 8 20 5 20 -4 0 -3 5 0 10 9 14 21 12 35 -5z
m67 -7 c-3 -8 -6 -5 -6 6 -1 11 2 17 5 13 3 -3 4 -12 1 -19z m-83 -66 c3 -5
-1 -9 -9 -9 -8 0 -12 4 -9 9 3 4 7 8 9 8 2 0 6 -4 9 -8z m-482 -42 c3 -16 3
-30 2 -30 -9 0 -24 42 -19 50 10 16 12 12 17 -20z m201 -30 c-3 -11 -7 -20 -9
-20 -2 0 -4 9 -4 20 0 11 4 20 9 20 5 0 7 -9 4 -20z m407 -34 c0 -2 -7 -7 -16
-10 -8 -3 -12 -2 -9 4 6 10 25 14 25 6z m-543 -58 c-2 -13 -4 -5 -4 17 -1 22
1 32 4 23 2 -10 2 -28 0 -40z m464 -45 c-12 -20 -14 -14 -5 12 4 9 9 14 11 11
3 -2 0 -13 -6 -23z m-261 -3 c-20 -13 -33 -13 -25 0 3 6 14 10 23 10 15 0 15
-2 2 -10z m347 -52 c-3 -8 -6 -5 -6 6 -1 11 2 17 5 13 3 -3 4 -12 1 -19z m3
-85 c0 -28 -3 -34 -10 -23 -13 20 -13 60 0 60 6 0 10 -17 10 -37z m-40 -35 c0
-13 -5 -30 -10 -38 -7 -11 -10 -5 -10 23 0 20 5 37 10 37 6 0 10 -10 10 -22z
m-326 -16 c-10 -10 -27 -17 -37 -14 -21 5 -12 18 18 25 36 9 39 7 19 -11z m56
4 c0 -2 -7 -7 -16 -10 -8 -3 -12 -2 -9 4 6 10 25 14 25 6z m-113 -49 c-12 -13
-24 -22 -26 -20 -6 4 30 43 40 43 5 0 -2 -10 -14 -23z m329 -3 c-4 -9 -9 -15
-11 -12 -3 3 -3 13 1 22 4 9 9 15 11 12 3 -3 3 -13 -1 -22z m-9 -46 c-3 -8 -6
-5 -6 6 -1 11 2 17 5 13 3 -3 4 -12 1 -19z m90 -33 c0 -8 -4 -15 -9 -15 -10 0
-11 14 -1 23 9 10 10 9 10 -8z m-462 -25 c-28 -12 -37 -12 -30 0 3 6 16 10 28
9 21 0 21 -1 2 -9z m336 -119 c6 10 9 6 9 -15 0 -24 -2 -27 -15 -16 -8 7 -14
24 -14 39 2 25 2 26 6 2 4 -19 7 -21 14 -10z m-186 -38 c-2 -10 -4 -20 -5 -23
-1 -3 -2 -8 -2 -11 1 -4 -8 -5 -18 -2 -23 6 -27 23 -6 23 8 0 16 7 20 15 8 21
15 19 11 -2z m65 13 c0 -2 -8 -10 -17 -17 -16 -13 -17 -12 -4 4 13 16 21 21
21 13z m30 -16 c0 -5 -4 -10 -10 -10 -5 0 -10 5 -10 10 0 6 5 10 10 10 6 0 10
-4 10 -10z m82 -45 c6 -6 7 -4 3 8 -4 10 -2 17 4 17 8 0 9 -14 5 -42 -4 -24
-7 -44 -8 -45 -1 -1 -9 5 -20 12 -15 11 -17 21 -10 57 5 27 9 36 12 23 2 -11
8 -24 14 -30z m-186 -28 c-1 -7 -6 -19 -11 -27 -5 -8 -11 -19 -12 -25 -16 -66
-24 -93 -37 -119 -8 -17 -17 -39 -20 -48 -3 -10 -11 -18 -18 -18 -9 0 -9 3 0
12 7 7 12 22 12 35 0 13 4 23 9 23 5 0 9 13 9 29 -1 16 6 37 16 46 14 15 21
43 17 69 -1 4 1 16 4 27 6 19 34 16 31 -4z m52 -28 c-22 -23 -42 -39 -44 -36
-8 8 19 47 38 52 9 3 19 13 22 21 3 8 10 13 15 10 4 -3 -9 -24 -31 -47z m179
-113 c3 -20 2 -19 -17 4 -11 14 -19 34 -19 45 0 19 1 18 17 -4 9 -13 17 -33
19 -45z m-115 -8 c-2 -10 -11 -18 -19 -18 -10 0 -13 -6 -9 -16 4 -10 1 -14 -6
-12 -18 6 -22 36 -8 53 17 20 48 15 42 -7z m-92 3 c0 -5 -9 -11 -21 -14 -16
-4 -18 -3 -8 9 13 16 29 19 29 5z m102 -33 c-8 -8 -9 -4 -5 13 4 13 8 18 11
10 2 -7 -1 -18 -6 -23z m-123 -1 c-2 -1 -13 -9 -24 -17 -19 -14 -19 -14 -6 3
7 9 18 17 24 17 6 0 8 -1 6 -3z m201 -41 c0 -15 -18 -31 -26 -23 -7 7 7 37 17
37 5 0 9 -6 9 -14z m-260 -26 c0 -5 -5 -10 -11 -10 -5 0 -7 5 -4 10 3 6 8 10
11 10 2 0 4 -4 4 -10z m33 -14 c-10 -13 -23 -21 -30 -19 -9 3 -5 11 10 24 31
26 41 24 20 -5z m-53 -10 c0 -7 -18 -38 -40 -70 -22 -31 -46 -69 -54 -84 -19
-35 -88 -111 -84 -92 2 8 5 17 8 20 26 26 70 83 70 90 0 6 -13 -4 -30 -22 -22
-22 -30 -26 -30 -14 0 9 4 16 9 16 12 0 41 46 46 72 5 25 11 31 29 34 11 1 9
-7 -6 -35 l-20 -36 26 30 c14 16 25 34 25 40 -3 25 2 36 14 29 6 -4 9 -4 5 1
-10 11 11 47 23 40 5 -4 9 -12 9 -19z m-69 -29 c-10 -9 -11 -8 -5 6 3 10 9 15
12 12 3 -3 0 -11 -7 -18z m139 -11 c0 -2 -7 -7 -16 -10 -8 -3 -12 -2 -9 4 6
10 25 14 25 6z m-60 -40 c0 -2 -11 -11 -25 -20 -25 -17 -25 -16 -13 4 11 17
38 29 38 16z m160 -47 c0 -5 -7 -9 -15 -9 -9 0 -15 9 -15 21 0 18 2 19 15 9 8
-7 15 -16 15 -21z m91 -9 c-4 -3 -8 -16 -8 -29 -2 -27 -19 -48 -30 -37 -4 4
-2 11 5 15 7 4 10 15 7 23 -4 9 -2 19 4 23 6 3 11 16 12 28 0 21 1 21 8 2 5
-11 5 -22 2 -25z m-134 8 c-3 -8 -6 -5 -6 6 -1 11 2 17 5 13 3 -3 4 -12 1 -19z
m94 -47 c-5 -3 -12 -23 -16 -44 -4 -20 -11 -37 -16 -37 -5 0 -9 2 -9 4 0 2 -3
12 -6 21 -4 9 -3 15 2 14 21 -4 23 3 8 26 -15 23 -15 24 6 20 17 -3 20 0 16
12 -6 13 -4 14 9 3 9 -8 12 -16 6 -19z m-61 2 c0 -10 -4 -14 -8 -8 -4 6 -11
13 -16 18 -5 4 -2 7 7 7 10 0 17 -8 17 -17z m85 -75 c-7 -34 -16 -35 -13 -1 1
18 5 30 9 27 4 -2 6 -14 4 -26z m-104 -199 c-12 -13 -21 -19 -21 -14 0 11 32
46 38 41 2 -3 -5 -15 -17 -27z m-380 -24 c10 6 11 5 3 -4 -12 -14 -47 -4 -38
11 4 6 9 6 14 -2 5 -7 14 -9 21 -5z m339 -4 c0 -5 -7 -12 -16 -15 -14 -5 -15
-4 -4 9 14 17 20 19 20 6z m-40 -76 c-7 -9 -15 -13 -19 -10 -3 3 1 10 9 15 21
14 24 12 10 -5z"/>
<path d="M1781 3084 c0 -11 3 -14 6 -6 3 7 2 16 -1 19 -3 4 -6 -2 -5 -13z"/>
<path d="M2248 3013 c7 -3 16 -2 19 1 4 3 -2 6 -13 5 -11 0 -14 -3 -6 -6z"/>
<path d="M2479 2643 c-13 -16 -12 -17 4 -4 9 7 17 15 17 17 0 8 -8 3 -21 -13z"/>
<path d="M2525 3900 c3 -5 11 -10 16 -10 6 0 7 5 4 10 -3 6 -11 10 -16 10 -6
0 -7 -4 -4 -10z"/>
<path d="M1640 3845 c-10 -12 -9 -16 4 -21 9 -3 25 -4 36 -1 11 3 20 0 21 -6
0 -7 5 -2 11 11 6 12 8 26 3 30 -4 4 -10 1 -12 -5 -5 -15 -33 -17 -33 -3 0 15
-16 12 -30 -5z"/>
<path d="M2437 3845 c3 -8 9 -12 14 -9 12 7 11 11 -5 17 -10 4 -13 1 -9 -8z"/>
<path d="M2480 3850 c8 -5 22 -10 30 -10 13 0 13 1 0 10 -8 5 -22 10 -30 10
-13 0 -13 -1 0 -10z"/>
<path d="M2392 3833 c-7 -10 -10 -12 -7 -5 3 6 1 12 -4 12 -6 0 -11 -5 -11
-10 0 -6 -20 -15 -45 -22 -43 -12 -57 -29 -35 -43 6 -3 10 -1 10 4 0 6 11 11
25 11 14 0 25 4 25 9 0 14 44 21 51 9 4 -6 14 -13 22 -14 8 -1 33 -14 55 -29
23 -15 47 -25 54 -22 9 4 7 6 -4 6 -9 1 -37 17 -62 36 -25 19 -47 32 -47 27
-1 -4 -4 5 -8 21 -5 25 -7 26 -19 10z"/>
<path d="M1737 3833 c-9 -2 -15 -8 -12 -12 6 -11 55 -1 55 10 0 9 -13 10 -43
2z"/>
<path d="M2022 3825 c-7 -8 -20 -15 -30 -15 -9 -1 -33 -14 -52 -30 -42 -37
-36 -39 10 -5 19 14 42 25 51 25 10 0 24 6 31 13 7 8 20 16 28 20 11 4 9 6 -5
6 -11 0 -26 -6 -33 -14z"/>
<path d="M2060 3810 c0 -5 5 -10 11 -10 5 0 7 5 4 10 -3 6 -8 10 -11 10 -2 0
-4 -4 -4 -10z"/>
<path d="M1790 3799 c-13 -7 -12 -9 2 -9 9 0 19 -6 21 -12 3 -8 6 -7 6 4 1 22
-11 29 -29 17z"/>
<path d="M2237 3774 c-4 -4 -7 -11 -7 -15 0 -10 24 -5 28 6 4 12 -12 18 -21 9z"/>
<path d="M2382 3755 c-22 -12 -22 -13 -3 -18 12 -3 27 3 37 14 20 23 3 25 -34
4z"/>
<path d="M2090 3753 c8 -4 20 -13 27 -22 7 -9 13 -11 13 -5 0 15 -22 34 -39
33 -14 0 -14 -1 -1 -6z"/>
<path d="M2435 3750 c-3 -5 -1 -10 4 -10 6 0 11 5 11 10 0 6 -2 10 -4 10 -3 0
-8 -4 -11 -10z"/>
<path d="M2275 3724 c22 -16 35 -18 35 -5 0 5 -12 11 -27 14 -26 5 -26 4 -8
-9z"/>
<path d="M1820 3721 c0 -6 4 -13 10 -16 6 -3 7 1 4 9 -7 18 -14 21 -14 7z"/>
<path d="M2251 3709 c0 -8 -7 -24 -15 -35 -13 -16 -18 -17 -35 -7 -22 14 -25
11 -35 -29 -7 -30 -4 -33 39 -41 l30 -6 -27 12 c-36 14 -36 33 1 40 32 7 55
38 48 65 -4 14 -5 14 -6 1z"/>
<path d="M1550 3680 c0 -5 5 -10 11 -10 5 0 7 5 4 10 -3 6 -8 10 -11 10 -2 0
-4 -4 -4 -10z"/>
<path d="M2120 3670 c0 -5 4 -10 9 -10 6 0 13 5 16 10 3 6 -1 10 -9 10 -9 0
-16 -4 -16 -10z"/>
<path d="M1948 3643 c7 -3 16 -2 19 1 4 3 -2 6 -13 5 -11 0 -14 -3 -6 -6z"/>
<path d="M2290 3628 c0 -4 16 -8 35 -8 19 0 35 2 35 4 0 2 -16 6 -35 8 -19 2
-35 0 -35 -4z"/>
<path d="M2130 3580 c0 -13 3 -20 7 -17 3 4 12 2 20 -4 10 -9 13 -7 13 11 0
13 -3 20 -7 17 -3 -4 -12 -2 -20 4 -10 9 -13 7 -13 -11z"/>
<path d="M2726 3310 c2 -19 4 -44 4 -54 0 -33 13 -9 16 31 2 25 0 33 -5 24 -7
-11 -10 -9 -14 10 -2 13 -3 8 -1 -11z"/>
<path d="M2556 3323 c-6 -14 -5 -15 5 -6 7 7 10 15 7 18 -3 3 -9 -2 -12 -12z"/>
<path d="M1619 3261 c7 -5 10 -14 7 -20 -4 -6 0 -11 9 -11 13 0 14 4 5 20 -6
11 -16 20 -23 20 -8 0 -8 -3 2 -9z"/>
<path d="M2555 3246 c-22 -24 -49 -90 -34 -80 12 7 11 -3 -2 -28 -10 -18 -9
-20 6 -15 9 4 20 7 25 7 9 0 32 61 25 68 -2 3 0 13 6 23 5 11 6 26 2 33 -7 12
-12 10 -28 -8z m5 -26 c0 -5 -5 -10 -11 -10 -5 0 -7 5 -4 10 3 6 8 10 11 10 2
0 4 -4 4 -10z"/>
<path d="M2685 3209 c-4 -6 -5 -12 -2 -15 2 -3 7 2 10 11 7 17 1 20 -8 4z"/>
<path d="M2691 3172 c-13 -27 -21 -56 -19 -63 2 -7 14 11 27 40 29 68 22 88
-8 23z"/>
<path d="M2651 3154 c-6 -15 -9 -29 -7 -32 3 -2 10 8 16 23 14 36 7 43 -9 9z"/>
<path d="M1618 3143 c6 -2 18 -2 25 0 6 3 1 5 -13 5 -14 0 -19 -2 -12 -5z"/>
<path d="M1500 2900 c6 -11 13 -20 16 -20 2 0 0 9 -6 20 -6 11 -13 20 -16 20
-2 0 0 -9 6 -20z"/>
<path d="M1537 2901 c-3 -11 -2 -20 2 -19 17 2 25 -3 15 -10 -7 -5 -7 -14 2
-30 11 -23 12 -23 17 -3 3 12 1 18 -4 15 -6 -3 -8 5 -5 20 6 31 -19 56 -27 27z"/>
<path d="M1670 2895 c7 -9 10 -18 6 -22 -3 -3 -6 -1 -6 5 0 7 -5 12 -11 12 -8
0 -8 -5 1 -15 18 -22 30 -18 30 10 0 16 -6 25 -16 25 -14 0 -14 -3 -4 -15z"/>
<path d="M1575 2891 c-3 -6 5 -15 17 -22 20 -11 21 -10 11 3 -7 8 -10 18 -6
21 3 4 1 7 -5 7 -6 0 -13 -4 -17 -9z"/>
<path d="M1630 2849 c0 -5 5 -7 10 -4 6 3 10 8 10 11 0 2 -4 4 -10 4 -5 0 -10
-5 -10 -11z"/>
<path d="M2596 2834 c-5 -14 -4 -15 9 -4 17 14 19 20 6 20 -5 0 -12 -7 -15
-16z"/>
<path d="M2064 2822 c4 -7 2 -12 -4 -12 -8 0 -8 -6 0 -20 6 -11 16 -18 22 -14
7 4 6 9 -2 14 -7 4 -10 12 -6 18 3 6 1 14 -5 18 -8 4 -9 3 -5 -4z"/>
<path d="M2136 2778 c3 -5 10 -6 15 -3 13 9 11 12 -6 12 -8 0 -12 -4 -9 -9z"/>
<path d="M2028 2773 c7 -3 16 -2 19 1 4 3 -2 6 -13 5 -11 0 -14 -3 -6 -6z"/>
<path d="M2620 2751 c0 -11 -3 -27 -7 -37 -4 -11 -3 -15 4 -11 13 8 23 67 11
67 -4 0 -8 -9 -8 -19z"/>
<path d="M2025 2720 c-4 -11 -11 -17 -17 -14 -6 4 -8 2 -5 -4 11 -16 43 -3 43
19 0 25 -13 25 -21 -1z"/>
<path d="M1972 2700 c0 -19 2 -27 5 -17 2 9 2 25 0 35 -3 9 -5 1 -5 -18z"/>
<path d="M1600 2681 c0 -6 11 -22 25 -35 14 -13 25 -29 25 -35 0 -7 5 -9 10
-6 11 7 11 9 14 -66 2 -30 8 -64 15 -75 12 -18 12 -18 8 4 -6 27 -1 28 13 3 7
-14 7 -28 0 -47 -8 -19 -7 -30 1 -40 7 -8 12 -24 13 -37 1 -12 8 -21 15 -19 7
1 9 -2 6 -8 -7 -12 34 -80 48 -80 5 0 5 -4 2 -10 -3 -5 3 -10 14 -10 12 0 21
2 21 4 0 2 3 13 6 23 4 13 3 14 -4 5 -7 -10 -11 -3 -15 26 -8 49 -91 228 -109
235 -8 3 -8 6 -1 6 13 1 5 41 -9 41 -5 0 -7 4 -3 9 5 9 -16 37 -77 105 -11 11
-18 15 -18 7z m139 -229 c5 -10 6 -24 2 -31 -6 -9 -10 -3 -13 18 -5 36 -3 38
11 13z"/>
<path d="M2555 2659 c-4 -6 -5 -12 -2 -15 2 -3 7 2 10 11 7 17 1 20 -8 4z"/>
<path d="M2215 2650 c-8 -13 5 -13 25 0 13 8 13 10 -2 10 -9 0 -20 -4 -23 -10z"/>
<path d="M2550 2619 c0 -5 -5 -7 -11 -3 -8 4 -8 0 0 -15 15 -27 18 -26 23 4 3
14 1 25 -3 25 -5 0 -9 -5 -9 -11z"/>
<path d="M1616 2518 c3 -37 21 -59 29 -35 10 25 1 60 -15 62 -12 2 -15 -5 -14
-27z"/>
<path d="M2485 2540 c-3 -5 -1 -10 4 -10 6 0 11 5 11 10 0 6 -2 10 -4 10 -3 0
-8 -4 -11 -10z"/>
<path d="M2552 2520 c0 -14 2 -19 5 -12 2 6 2 18 0 25 -3 6 -5 1 -5 -13z"/>
<path d="M2514 2496 c-3 -8 -4 -29 -2 -48 3 -29 4 -27 8 15 5 48 3 58 -6 33z"/>
<path d="M1634 2375 c1 -28 5 -56 10 -63 12 -20 26 -73 32 -122 3 -25 13 -56
21 -69 8 -13 10 -20 4 -16 -8 5 -10 -2 -5 -22 9 -36 13 -41 24 -23 6 9 5 17
-3 22 -7 4 -10 8 -7 9 3 0 13 2 23 4 23 4 22 -18 -2 -39 -16 -14 -18 -23 -10
-49 10 -35 59 -88 59 -63 0 8 6 17 13 19 7 3 6 6 -5 6 -19 1 -33 35 -22 52 4
7 3 9 -3 6 -6 -4 -14 1 -17 10 -4 9 -2 20 5 23 14 9 7 46 -9 42 -13 -2 -32 36
-39 76 -2 12 1 22 7 22 6 0 4 7 -4 16 -22 21 -20 40 2 23 15 -12 16 -12 5 2
-7 9 -9 20 -5 24 4 5 2 5 -5 1 -6 -3 -14 -2 -18 4 -3 5 6 12 20 16 19 5 23 10
16 17 -6 6 -11 22 -11 37 0 14 -4 31 -9 39 -7 11 -11 10 -19 -6 -8 -14 -7 -27
3 -46 8 -16 10 -29 4 -32 -5 -4 -9 1 -9 9 0 9 -4 16 -10 16 -5 0 -9 3 -8 8 1
4 -3 17 -10 28 -6 12 -9 24 -6 27 3 3 1 14 -4 23 -8 14 -10 6 -8 -31z"/>
<path d="M1845 2399 c-4 -6 -5 -12 -2 -15 2 -3 7 2 10 11 7 17 1 20 -8 4z"/>
<path d="M2364 2336 c-6 -6 -8 -20 -4 -31 6 -17 8 -16 14 9 8 33 5 39 -10 22z"/>
<path d="M2541 2314 c0 -11 3 -14 6 -6 3 7 2 16 -1 19 -3 4 -6 -2 -5 -13z"/>
<path d="M2533 2264 c0 -17 2 -22 7 -13 5 6 6 18 3 26 -8 19 -10 16 -10 -13z"/>
<path d="M1742 2218 c5 -18 11 -42 12 -53 0 -11 7 -25 15 -31 8 -7 11 -16 6
-24 -5 -8 -4 -11 3 -6 6 3 13 -2 15 -11 2 -10 4 -6 3 9 -2 22 1 25 14 18 12
-6 16 -4 16 10 0 11 -5 16 -15 12 -9 -3 -12 -1 -7 6 4 7 3 12 -1 12 -5 0 -19
20 -31 45 -25 53 -46 61 -30 13z"/>
<path d="M1800 2195 c0 -8 2 -15 4 -15 2 0 6 7 10 15 3 8 1 15 -4 15 -6 0 -10
-7 -10 -15z"/>
<path d="M2488 2107 c-3 -19 -2 -25 4 -19 6 6 8 18 6 28 -3 14 -5 12 -10 -9z"/>
<path d="M1774 2009 c-3 -6 -1 -16 4 -21 8 -8 11 -5 9 11 -1 24 -3 25 -13 10z"/>
<path d="M2431 2000 c0 -8 4 -22 9 -30 12 -18 12 -2 0 25 -6 13 -9 15 -9 5z"/>
<path d="M1806 1944 c-6 -15 -4 -15 11 -3 10 7 20 15 22 16 2 2 -3 3 -11 3 -9
0 -19 -7 -22 -16z"/>
<path d="M2410 1901 c0 -25 6 -27 13 -6 4 8 2 17 -3 20 -6 4 -10 -3 -10 -14z"/>
<path d="M1781 1754 c0 -11 3 -14 6 -6 3 7 2 16 -1 19 -3 4 -6 -2 -5 -13z"/>
<path d="M2362 1193 c-22 -43 -36 -133 -21 -133 6 0 8 -4 4 -9 -3 -5 -1 -12 4
-16 6 -3 8 -12 4 -20 -3 -8 -1 -15 5 -15 12 0 24 28 17 40 -3 4 2 10 10 14 8
3 15 13 15 22 0 11 -5 14 -17 9 -15 -5 -16 -4 -5 6 13 14 17 43 5 36 -5 -3 -8
15 -7 39 1 49 -1 52 -14 27z"/>
<path d="M2300 1162 c0 -5 7 -15 15 -22 8 -7 15 -9 15 -6 0 4 -7 14 -15 22 -8
9 -15 11 -15 6z"/>
<path d="M1700 1104 c-17 -9 -20 -14 -9 -14 9 0 22 7 29 15 15 18 13 18 -20
-1z"/>
<path d="M2300 1110 c0 -5 -10 -19 -23 -32 -13 -13 -26 -31 -30 -41 -11 -28
-28 -9 -22 24 3 17 2 28 -4 25 -5 -3 -11 -21 -13 -39 -3 -29 -1 -33 21 -35 14
-1 28 4 33 10 5 9 8 8 8 -5 0 -17 1 -17 16 -3 21 21 27 20 21 -4 -3 -12 0 -20
8 -20 17 0 7 40 -11 47 -18 7 -18 21 1 39 17 17 20 44 5 44 -5 0 -10 -4 -10
-10z"/>
<path d="M1869 1093 c-12 -16 -12 -17 2 -6 9 7 20 9 24 5 5 -4 5 -1 1 6 -9 16
-11 15 -27 -5z"/>
<path d="M1978 1068 c18 -18 14 -31 -8 -25 -11 3 -18 1 -14 -4 7 -12 26 -11
45 4 15 11 14 14 -9 25 -20 9 -23 9 -14 0z"/>
<path d="M1824 1046 c-10 -8 -16 -17 -13 -21 4 -3 13 1 22 9 8 8 18 12 22 8 5
-4 5 -1 1 6 -9 15 -8 15 -32 -2z"/>
<path d="M1875 1050 c-3 -5 -2 -10 4 -10 5 0 13 5 16 10 3 6 2 10 -4 10 -5 0
-13 -4 -16 -10z"/>
<path d="M1780 1041 c0 -6 5 -13 10 -16 6 -3 10 1 10 9 0 9 -4 16 -10 16 -5 0
-10 -4 -10 -9z"/>
<path d="M2414 1025 c5 -11 17 -22 27 -22 26 -2 12 34 -15 39 -20 4 -21 2 -12
-17z"/>
<path d="M1890 1020 c-6 -11 -7 -20 -2 -20 6 0 12 9 15 20 3 11 3 20 1 20 -2
0 -8 -9 -14 -20z"/>
<path d="M1630 1019 c0 -4 -15 -47 -33 -96 -31 -82 -32 -90 -15 -85 15 4 17 7
6 13 -20 13 0 10 70 -9 66 -19 72 -32 15 -32 -18 0 -33 -4 -33 -10 0 -5 7 -10
16 -10 9 0 14 -6 11 -12 -2 -7 -13 -12 -25 -11 -12 2 -22 -5 -25 -17 -3 -11
-11 -20 -17 -20 -7 0 -9 7 -6 15 3 8 9 22 12 30 3 8 1 15 -6 15 -6 0 -9 -4 -6
-9 3 -5 -6 -17 -21 -26 -24 -16 -27 -16 -38 -2 -9 13 -11 10 -11 -18 1 -31 2
-32 19 -18 22 21 32 11 17 -17 -8 -15 -8 -20 -1 -16 16 10 14 -1 -5 -29 -22
-33 -36 -32 -23 1 13 36 6 41 -15 10 -10 -16 -22 -23 -31 -20 -13 5 -12 11 6
36 12 16 18 32 15 35 -3 4 -6 1 -6 -6 0 -7 -4 -10 -9 -7 -11 7 -74 -163 -67
-181 4 -9 1 -11 -5 -7 -7 4 -10 1 -7 -7 19 -58 315 -102 678 -102 118 0 208
-2 200 -5 -8 -2 -21 -10 -29 -16 -12 -8 -13 -8 -7 2 7 12 -39 11 -164 -4 -84
-10 -304 0 -325 15 -26 19 -152 10 -139 -10 3 -6 -4 -8 -18 -4 -12 2 -45 10
-73 15 -27 6 -70 20 -95 31 -45 19 -45 19 -22 -1 29 -24 99 -46 217 -66 124
-21 505 -30 675 -15 207 18 400 62 400 91 0 6 -10 4 -23 -4 -23 -16 -137 -46
-172 -46 -17 0 -18 2 -5 11 13 9 12 10 -2 5 -10 -3 -31 1 -48 8 -31 12 -30 12
37 25 105 19 181 42 196 60 13 14 11 26 -16 99 -21 59 -33 79 -39 70 -6 -8
-11 -9 -14 -3 -28 58 -41 79 -52 83 -7 2 0 -18 17 -44 16 -27 27 -52 22 -57
-9 -9 -147 -36 -169 -33 -9 2 -19 11 -21 22 -3 15 -1 16 12 6 11 -9 17 -10 22
-2 4 6 3 10 -2 9 -21 -5 -41 13 -35 33 3 13 1 19 -5 15 -6 -4 -13 0 -16 8 -4
9 -1 12 7 9 8 -3 17 0 21 6 3 6 3 10 -2 9 -21 -4 -32 3 -38 22 -6 17 -9 19
-16 8 -7 -11 -9 -11 -9 -1 0 7 -5 10 -12 6 -6 -4 -8 -3 -4 4 3 6 2 22 -3 35
l-10 25 82 8 c45 5 87 8 92 9 6 0 9 -8 9 -17 -1 -10 2 -16 6 -13 5 3 17 -8 26
-25 21 -35 34 -39 34 -10 0 11 -4 20 -8 20 -12 0 -40 53 -35 67 2 7 -6 40 -18
73 -21 58 -24 61 -48 54 -34 -10 -282 -17 -537 -17 -196 1 -280 11 -296 37 -4
6 -8 8 -8 5z m837 -89 c7 -28 10 -57 6 -66 -10 -28 -37 -10 -45 31 -5 22 -13
44 -18 49 -16 16 -12 24 13 29 12 2 24 5 27 6 3 0 11 -22 17 -49z m-403 -10
c-14 -14 -39 14 -29 31 5 8 12 6 23 -5 11 -11 13 -19 6 -26z m-269 -101 c10
-16 -15 -99 -30 -99 -14 0 -27 37 -15 42 12 5 21 58 10 58 -6 0 -8 -5 -4 -12
4 -7 3 -8 -4 -4 -7 4 -12 11 -12 17 0 13 47 11 55 -2z m38 -15 c-3 -9 0 -14 7
-12 7 2 15 -4 17 -12 4 -12 3 -12 -5 -2 -5 8 -13 12 -18 10 -5 -1 -11 8 -12
21 -2 14 0 21 7 17 5 -4 8 -13 4 -22z m484 10 c0 -7 -6 -10 -14 -7 -7 3 -13 8
-13 12 0 4 6 8 13 8 8 0 14 -6 14 -13z m-319 -6 c-3 -8 -21 -13 -48 -13 -52 0
-67 -22 -18 -27 18 -2 32 -7 32 -13 -1 -5 -16 -9 -33 -7 -21 2 -33 -1 -37 -12
-11 -30 -22 -16 -26 33 l-3 48 69 2 c52 2 67 -1 64 -11z m172 1 c0 -6 -5 -7
-11 -3 -6 3 1 -11 14 -32 14 -22 30 -38 37 -36 6 1 9 -2 6 -7 -4 -6 -35 -7
-75 -4 -46 4 -70 2 -75 -6 -4 -6 -14 -11 -22 -11 -13 0 -10 9 10 46 30 53 30
54 15 54 -5 0 -7 -4 -4 -10 3 -5 1 -10 -4 -10 -6 0 -11 -6 -11 -13 0 -7 -7
-22 -16 -33 -14 -18 -15 -18 -4 4 10 20 7 25 -10 24 -3 0 -7 10 -8 23 -2 23 0
24 78 24 48 0 80 -4 80 -10z m36 -4 c-8 -8 -20 -15 -27 -15 -9 0 -8 4 1 15 7
8 19 15 27 15 12 0 12 -2 -1 -15z m66 -8 c-7 -8 -8 -18 -4 -22 4 -5 1 -5 -5
-1 -10 5 -10 11 -1 26 7 11 14 17 17 15 2 -3 -1 -11 -7 -18z m-522 -17 c0 -4
-6 -10 -14 -13 -12 -5 -14 2 -7 31 2 7 21 -10 21 -18z m460 -4 c0 -11 -19 -15
-25 -6 -3 5 1 10 9 10 9 0 16 -2 16 -4z m114 -22 c3 -9 2 -12 -5 -9 -6 4 -20
-1 -32 -12 -21 -18 -21 -18 -7 2 13 17 31 34 36 35 1 0 5 -7 8 -16z m-308 -18
c0 -15 -6 -22 -14 -18 -17 6 -43 -29 -36 -48 4 -12 3 -12 -7 -3 -9 9 -9 16 -1
26 7 8 9 17 5 20 -3 4 -1 7 5 7 7 0 12 6 12 14 0 13 13 23 31 25 4 1 6 -10 5
-23z m245 -3 c-12 -20 -14 -14 -5 12 4 9 9 14 11 11 3 -2 0 -13 -6 -23z m-526
7 c3 -6 -1 -7 -9 -4 -18 7 -21 14 -7 14 6 0 13 -4 16 -10z m72 -22 c-3 -8 -6
-5 -6 6 -1 11 2 17 5 13 3 -3 4 -12 1 -19z m-225 -20 c-7 -7 -12 -8 -12 -2 0
14 12 26 19 19 2 -3 -1 -11 -7 -17z m75 -4 c10 -27 -30 -68 -68 -70 -19 -1
-28 1 -21 3 6 3 12 12 12 22 0 45 62 82 77 45z m103 1 c11 -13 9 -19 -8 -38
-16 -17 -18 -26 -11 -39 8 -14 6 -18 -6 -18 -9 0 -19 9 -22 20 -6 24 -19 26
-27 5 -3 -8 -13 -15 -21 -15 -10 0 -13 4 -8 13 4 6 8 17 9 22 8 44 25 65 53
65 15 0 34 -7 41 -15z m91 2 c-7 -7 -14 -8 -21 -1 -6 6 -2 10 12 11 16 2 18
-1 9 -10z m269 -7 c0 -11 -4 -20 -9 -20 -5 0 -7 9 -4 20 3 11 7 20 9 20 2 0 4
-9 4 -20z m98 -75 c-16 -15 -98 -29 -98 -16 0 5 -20 6 -45 4 -43 -5 -44 -5
-62 33 -10 22 -22 42 -26 45 -5 3 -2 9 7 12 9 4 15 3 15 -1 -4 -26 3 -30 21
-12 22 22 45 26 55 10 3 -5 -6 -12 -20 -16 -34 -8 -31 -47 4 -52 13 -2 21 1
17 6 -8 13 20 36 34 27 5 -3 10 -15 10 -25 0 -10 4 -21 9 -24 5 -3 4 12 -1 34
-6 23 -8 43 -5 46 11 11 27 -7 27 -30 0 -27 24 -51 40 -41 8 5 9 20 5 43 -4
24 -2 37 7 43 18 12 24 -69 6 -86z m-413 45 c-6 -36 -5 -40 14 -40 12 0 21 -4
21 -10 0 -17 -77 -12 -84 5 -3 8 -2 15 3 15 5 0 12 16 15 35 4 22 13 35 22 35
13 0 14 -8 9 -40z m130 31 c-2 -1 0 -13 5 -26 13 -34 -13 -65 -56 -65 -37 0
-39 5 -23 62 9 35 12 38 44 35 18 -1 32 -4 30 -6z m437 -26 c8 -19 12 -32 7
-29 -16 9 -79 -8 -79 -22 0 -17 -19 -18 -25 -1 -2 6 -6 29 -10 50 l-6 37 48 0
c46 0 50 -2 65 -35z m-372 -31 c0 -7 3 -19 6 -27 4 -11 -4 -15 -36 -15 l-42
-1 29 26 c15 14 22 22 14 18 -8 -5 -12 -4 -8 2 9 14 37 12 37 -3z m187 -6 c-3
-8 -6 -5 -6 6 -1 11 2 17 5 13 3 -3 4 -12 1 -19z m226 3 c3 -15 -2 -20 -23
-23 -16 -2 -27 1 -27 8 0 6 9 9 19 6 12 -3 18 1 18 12 0 22 7 20 13 -3z m-143
-31 c0 -3 -10 -6 -22 -7 -13 0 -17 1 -10 4 6 3 12 12 12 21 0 15 2 15 10 2 5
-8 10 -17 10 -20z m326 14 c-4 -9 1 -27 9 -40 9 -13 13 -24 9 -24 -3 0 1 -12
11 -26 14 -22 15 -28 4 -35 -31 -19 -68 2 -60 34 1 5 -8 22 -19 38 -12 16 -18
29 -13 29 4 0 1 4 -7 10 -16 10 -11 13 35 23 35 8 37 7 31 -9z m-1001 -24 c-3
-5 -14 -10 -24 -10 -9 0 -22 -5 -28 -11 -6 -6 -26 -13 -45 -15 -24 -3 -29 -1
-18 6 8 5 22 10 31 10 9 0 22 7 29 15 14 17 65 21 55 5z m485 -19 c0 -21 -27
-31 -53 -18 -38 17 -33 27 13 27 22 0 40 -4 40 -9z"/>
<path d="M2101 781 c-16 -29 -14 -31 19 -31 35 0 38 10 11 34 -19 17 -20 17
-30 -3z"/>
<path d="M1607 683 c-10 -9 -9 -43 1 -43 12 0 32 23 32 37 0 14 -22 18 -33 6z"/>
<path d="M1700 675 c0 -8 6 -15 14 -15 22 0 28 17 10 24 -22 9 -24 8 -24 -9z"/>
<path d="M2095 641 c-6 -11 9 -23 19 -14 9 9 7 23 -3 23 -6 0 -12 -4 -16 -9z"/>
<path d="M1887 674 c-9 -10 -9 -54 1 -54 18 1 34 19 30 35 -3 20 -20 30 -31
19z"/>
<path d="M2303 683 c-22 -8 -14 -23 12 -23 14 0 25 4 25 9 0 11 -21 19 -37 14z"/>
<path d="M1918 1013 c7 -3 16 -2 19 1 4 3 -2 6 -13 5 -11 0 -14 -3 -6 -6z"/>
<path d="M1542 803 c-10 -20 -5 -43 8 -43 5 0 7 10 5 22 -3 12 1 26 8 30 9 6
9 8 0 8 -7 0 -16 -8 -21 -17z"/>
<path d="M1605 810 c-3 -5 -1 -10 4 -10 6 0 11 5 11 10 0 6 -2 10 -4 10 -3 0
-8 -4 -11 -10z"/>
<path d="M2350 808 c0 -9 5 -20 10 -23 13 -8 13 5 0 25 -8 13 -10 13 -10 -2z"/>
<path d="M2508 738 c6 -6 18 -8 28 -6 14 3 12 5 -9 10 -19 3 -25 2 -19 -4z"/>
<path d="M2470 719 c0 -5 4 -8 9 -5 12 8 23 -22 14 -37 -3 -7 -2 -8 2 -4 5 4
15 -3 22 -15 16 -26 14 -20 -7 35 -13 34 -40 52 -40 26z"/>
<path d="M2431 694 c0 -11 3 -14 6 -6 3 7 2 16 -1 19 -3 4 -6 -2 -5 -13z"/>
<path d="M2765 510 c3 -5 12 -7 20 -3 21 7 19 13 -6 13 -11 0 -18 -4 -14 -10z"/>
<path d="M2772 493 c-13 -5 -7 -23 9 -23 6 0 8 4 5 9 -4 5 0 12 6 14 7 3 9 5
3 5 -5 0 -16 -2 -23 -5z"/>
<path d="M2768 453 c6 -2 18 -2 25 0 6 3 1 5 -13 5 -14 0 -19 -2 -12 -5z"/>
</g>
</svg>
